<svg width="90" height="90" viewBox="0 0 90 90" fill="none" xmlns="http://www.w3.org/2000/svg">
  <rect width="90" height="90" rx="20" fill="#C8FF31"/>
  <path d="M62.2374 67.7914L7.32854 85.7788C3.62367 86.9919 0 83.5149 0 78.7472V25.2623C0 21.9586 1.78881 19.0706 4.35446 18.2307L59.2633 0.243265C62.9682 -0.969876 66.5919 2.50715 66.5919 7.27488V60.7585C66.5919 64.0622 64.8031 66.9503 62.2374 67.7901V67.7914Z" fill="#C8FF31"/>
  <path d="M74.6173 51.7477L10.665 67.3659C9.18645 67.727 7.74547 66.652 7.66912 65.1323L5.71185 26.0367C5.6561 24.9205 6.36993 23.9109 7.44127 23.5922L71.2239 4.5952C72.7303 4.14678 74.2586 5.22782 74.3361 6.79727L76.4619 49.2718C76.52 50.4328 75.7456 51.4714 74.6161 51.7477H74.6173Z" fill="#65792D"/>
  <path d="M79.0966 58.0646L10.2239 68.2278C8.72834 68.4484 7.39885 67.2619 7.44733 65.7519L8.71622 26.6284C8.75258 25.5001 9.56336 24.5463 10.6711 24.3281L79.6565 10.7715C81.186 10.4709 82.5966 11.6707 82.5469 13.2281L81.1653 55.745C81.1278 56.9169 80.2564 57.8925 79.0966 58.0646Z" fill="#1D200F"/>
  <path d="M82.0246 21.4775H7.97086C3.95487 21.4775 0.69928 24.7331 0.69928 28.7491V82.7284C0.69928 86.7444 3.95487 90 7.97086 90H82.0246C86.0406 90 89.2962 86.7444 89.2962 82.7284V28.7491C89.2962 24.7331 86.0406 21.4775 82.0246 21.4775Z" fill="#C8FF31"/>
  <path d="M26.637 55.7388C26.637 65.879 34.8575 74.0995 44.9977 74.0995C55.1379 74.0995 63.3584 65.879 63.3584 55.7388" stroke="#1D200F" strokeWidth="7.08218" strokeMiterlimit="10" strokeLinecap="round"/>
</svg>
